<?xml version="1.0" encoding="iso-8859-1"?>
<!-- Generator: Adobe Illustrator 19.0.0, SVG Export Plug-In . SVG Version: 6.00 Build 0)  -->
<svg version="1.1" id="Layer_1" xmlns="http://www.w3.org/2000/svg" xmlns:xlink="http://www.w3.org/1999/xlink" x="0px" y="0px"
	 viewBox="0 0 475.8 475.8" style="enable-background:new 0 0 475.8 475.8;" xml:space="preserve">
<g transform="translate(0 -540.36)">
	<g>
		<g>
			<path fill="#FFFFFF" d="M242,673.26c-0.1,0-0.2,0-0.2,0h-32.6c-4.1,0-7.5,3.4-7.5,7.5v83.2h-10.4c-4.1,0-7.5,3.4-7.5,7.5s3.4,7.5,7.5,7.5h10.4
				v12.9h-10.4c-4.1,0-7.5,3.4-7.5,7.5s3.4,7.5,7.5,7.5h10.4v39c0,4.1,3.4,7.5,7.5,7.5c4.1,0,7.5-3.4,7.5-7.5v-39h47.6
				c4.1,0,7.5-3.4,7.5-7.5s-3.4-7.5-7.5-7.5h-47.6v-12.9h25.1c27.7,0,50.2-23.5,50.2-52.5C292,697.56,270.1,674.16,242,673.26z
				 M241.8,763.96h-25.1v-75.7h25c19.8,0.7,35.3,17.5,35.3,38.2S261.2,763.96,241.8,763.96z"/>
			<path fill="#FFFFFF" d="M238.3,540.36c-59.5,0-115.5,23.2-157.6,65.3c-42.1,42.1-65.3,98.1-65.3,157.6c0,0.6,0,1.2,0,1.9c0,0.2,0,0.3,0,0.5v28.7
				c0,78.9,42.6,152.4,111,191.7c34,19.7,72.5,30.1,111.5,30.1s77.5-10.4,111.4-30c33.9-19.3,62.1-47.2,81.5-80.9
				c19.4-33.5,29.6-71.9,29.6-110.9v-28.7c0-0.2,0-0.3,0-0.5c0-0.6,0-1.2,0-1.9C460.4,640.36,360.8,540.36,238.3,540.36z
				 M341.8,973.06L341.8,973.06c-32.1,18.6-68,27.9-103.9,27.9c-35.9,0-71.9-9.3-104-27.9c-36.9-21.2-65.7-53-83.5-90.3
				c39.6,61.7,109,102.6,187.8,102.6c78.6,0,147.8-41,187.3-102.8C407.8,920.16,378.9,951.96,341.8,973.06z M238.3,970.46
				c-114.6,0-207.9-92.9-207.9-207.1c0-114.7,93.3-207.9,207.9-207.9v0c114.2,0,207.1,93.3,207.1,207.9
				C445.4,877.56,352.5,970.46,238.3,970.46z"/>
			<path fill="#FFFFFF" d="M237.9,592.76c-94,0-170.5,76.5-170.5,170.5s76.5,170.5,170.5,170.5s170.5-76.5,170.5-170.5S331.9,592.76,237.9,592.76z
				 M237.9,918.76c-85.7,0-155.5-69.8-155.5-155.5s69.8-155.5,155.5-155.5s155.5,69.8,155.5,155.5S323.6,918.76,237.9,918.76z"/>
		</g>
	</g>
</g>
<g>
</g>
<g>
</g>
<g>
</g>
<g>
</g>
<g>
</g>
<g>
</g>
<g>
</g>
<g>
</g>
<g>
</g>
<g>
</g>
<g>
</g>
<g>
</g>
<g>
</g>
<g>
</g>
<g>
</g>
</svg>
