<svg id="Layer_1" height="512" viewBox="0 0 512 512" width="512" xmlns="http://www.w3.org/2000/svg" xmlns:xlink="http://www.w3.org/1999/xlink" data-name="Layer 1"><linearGradient id="linear-gradient" gradientUnits="userSpaceOnUse" x1="255.973" x2="255.973" y1="490.5" y2="71.693"><stop offset=".322" stop-color="#a163f5"/><stop offset=".466" stop-color="#b074ee"/><stop offset=".752" stop-color="#d8a1dd"/><stop offset=".898" stop-color="#efbad3"/></linearGradient><linearGradient id="linear-gradient-2" x1="375" x2="375" xlink:href="#linear-gradient" y1="490.5" y2="71.693"/><linearGradient id="linear-gradient-3" x1="317" x2="317" xlink:href="#linear-gradient" y1="490.5" y2="71.693"/><linearGradient id="linear-gradient-4" x1="259" x2="259" xlink:href="#linear-gradient" y1="490.5" y2="71.693"/><linearGradient id="linear-gradient-5" x1="227.164" x2="227.164" xlink:href="#linear-gradient" y1="490.5" y2="71.693"/><linearGradient id="linear-gradient-6" x1="292.022" x2="292.022" xlink:href="#linear-gradient" y1="490.5" y2="71.693"/><linearGradient id="linear-gradient-7" x1="349.843" x2="349.843" xlink:href="#linear-gradient" y1="490.5" y2="71.693"/><linearGradient id="linear-gradient-8" x1="219.555" x2="219.555" xlink:href="#linear-gradient" y1="490.5" y2="71.693"/><linearGradient id="linear-gradient-9" x1="256.34" x2="256.34" xlink:href="#linear-gradient" y1="490.5" y2="71.693"/><linearGradient id="linear-gradient-10" x1="191.378" x2="191.378" xlink:href="#linear-gradient" y1="490.5" y2="71.693"/><linearGradient id="linear-gradient-11" x1="200.702" x2="200.702" xlink:href="#linear-gradient" y1="490.5" y2="71.693"/><linearGradient id="linear-gradient-12" x1="260.096" x2="260.096" xlink:href="#linear-gradient" y1="490.5" y2="71.693"/><linearGradient id="linear-gradient-13" x1="320.514" x2="320.514" xlink:href="#linear-gradient" y1="490.5" y2="71.693"/><linearGradient id="linear-gradient-14" x1="377.86" x2="377.86" xlink:href="#linear-gradient" y1="490.5" y2="71.693"/><path d="m454.713 28h-129.522a40.806 40.806 0 0 0 -73.635 0h-129.522c-13.974 0-25.034 11.579-25.034 25.552v245.7a108.382 108.382 0 1 0 113.7 181.748h244.013a25.15 25.15 0 0 0 25.287-25.138v-402.31a25.5 25.5 0 0 0 -25.287-25.552zm-201.155 41c3.314 0 6.442-2.463 6.442-5.777v-17.408a28.5 28.5 0 1 1 57 0v17.408a5.978 5.978 0 0 0 6.188 5.777h57.812v35h-185v-35zm138.584 291c-13.974 0-25.142 11.729-25.142 25.7v30.3h-119.652a108.256 108.256 0 0 0 -25.348-88.628v-60.772c0-3.313-2.732-5.6-6.046-5.6h-28.163a5.491 5.491 0 0 0 -5.791 5.6v31.924a107.515 107.515 0 0 0 -28-7.469v-193.906c0-2.024 1.2-4.149 3.22-4.149h26.78v16.644c0 3.314 2.417 6.356 5.73 6.356h197.287a6.3 6.3 0 0 0 5.983-6.356v-16.644h26.526c2.024 0 3.474 2.125 3.474 4.149v262.851zm22.81 12-35.952 36.513v-22.813c0-7.356 5.785-13.7 13.142-13.7zm-205.066 4.059a24.12 24.12 0 0 0 -20.123-16.935l-1.817-.224a2.9 2.9 0 0 1 -1.339-.523l3.338-5.7a123.8 123.8 0 0 1 15.668-21.211 6.072 6.072 0 0 0 .459-.564l1.177-1.642a96.318 96.318 0 0 1 26.33 93.894l-1.2.054a23.17 23.17 0 0 0 -20.287 13.917l-.635 1.4a7.537 7.537 0 0 1 -6.94 4.483h-9.572l-.364-3.188a23.19 23.19 0 0 0 -10.581-17.208v-4.229a2.323 2.323 0 0 1 .812-1.71l18.061-15.937a23.8 23.8 0 0 0 7.013-24.677zm-15.886-71.631v-31.428h16v42.6a109.017 109.017 0 0 0 -16-11.172zm-85-250.876a13.279 13.279 0 0 1 13.034-13.552h125.919a44.283 44.283 0 0 0 .047 5.815v11.185h-58.27a5.972 5.972 0 0 0 -5.73 6.223v17.777h-26.78c-8.641 0-15.22 7.508-15.22 16.149v193.065c-.55-.008-1.1-.021-1.651-.021a108.053 108.053 0 0 0 -31.349 4.628zm-18.366 262.478 11.738 8.826a37.982 37.982 0 0 0 3.639 2.421 26.313 26.313 0 0 1 8.278 7.664l6.948 10.021a4.906 4.906 0 0 1 -.146 5.811l-3.223 4.182a1.444 1.444 0 0 1 -1.3.54l-3.658-.468a19.2 19.2 0 0 0 -19.047 9.4 1.554 1.554 0 0 1 -1.53.646l-8.361-1.062a19.617 19.617 0 0 0 -18.815 8.5 18.119 18.119 0 0 0 -.306 19.863l5.576 8.805a17.106 17.106 0 0 0 5.625 5.506c-.259-.082-.521-.159-.784-.231l-.854-.233a4.927 4.927 0 0 1 -2.073-1.161l-7.281-6.854a10.5 10.5 0 0 1 -1.872-2.353 22.277 22.277 0 0 0 -18.255-11.035 96.6 96.6 0 0 1 45.701-68.788zm-46.689 82.57c0-.6.012-1.192.023-1.786a10.252 10.252 0 0 1 8.858 5.1 22.5 22.5 0 0 0 4.011 5.041l7.282 6.854a16.958 16.958 0 0 0 7.138 4l.852.233a8.789 8.789 0 0 1 6.131 6.105l3.9 14.083a19.663 19.663 0 0 0 3.333 6.711l11.827 15.502a8.977 8.977 0 0 1 1.71 3.952l3.215 19.285a8.9 8.9 0 0 0 1.951 4.272 96.553 96.553 0 0 1 -60.231-89.352zm66.906 63.825a21 21 0 0 0 -4.006-9.256l-11.827-15.51a7.764 7.764 0 0 1 -1.31-2.639l-3.9-14.083a20.852 20.852 0 0 0 -9.67-12.448 17.253 17.253 0 0 0 13.054-1.317l5.738-3.072a4.57 4.57 0 0 1 4.491.109l10.9 6.539a8.647 8.647 0 0 0 4.688 1.233 9.526 9.526 0 0 1 7.695 4.2l5.33 7.429c.469.655.972 1.3 1.492 1.91l5.328 6.268-8.554 6.567a22.919 22.919 0 0 0 -7.982 11.483l-3.518 11.422a1.165 1.165 0 0 1 -.221.408l-3.427 4.122a26.645 26.645 0 0 0 -3 4.434zm29.5 32.572a96.081 96.081 0 0 1 -27.818-4.1 8.635 8.635 0 0 0 1.71-.515 11.419 11.419 0 0 0 6.97-9.515 13.525 13.525 0 0 1 3.164-7.408l3.427-4.121a13.124 13.124 0 0 0 2.46-4.545l3.521-11.423a10.973 10.973 0 0 1 3.823-5.5l10.477-8.045a9.681 9.681 0 0 0 3.717-6.148 9.574 9.574 0 0 0 -2.159-7.726l-6.975-8.207c-.309-.362-.6-.743-.884-1.131l-5.33-7.43a21.472 21.472 0 0 0 -16.754-9.203l-10.109-6.065a16.632 16.632 0 0 0 -16.332-.4l-5.738 3.085a5.3 5.3 0 0 1 -6.955-1.83l-5.577-8.806a6.124 6.124 0 0 1 .1-6.712 7.678 7.678 0 0 1 7.365-3.33l8.365 1.063a13.476 13.476 0 0 0 13.414-6.516 7.213 7.213 0 0 1 7.155-3.533l3.659.467a13.471 13.471 0 0 0 12.321-5.117l3.232-4.186a16.865 16.865 0 0 0 .5-19.975l-6.95-10.025a38.406 38.406 0 0 0 -12.079-11.185 26.224 26.224 0 0 1 -2.493-1.657l-7.078-5.323a96.26 96.26 0 0 1 95.584 11.5l-1.556 2.172a135.745 135.745 0 0 0 -16.94 23l-3.812 6.516a11.016 11.016 0 0 0 1.307 12.7 14.9 14.9 0 0 0 9.4 4.979l1.821.224a12.12 12.12 0 0 1 10.111 8.506 11.769 11.769 0 0 1 -3.464 12.2l-18.082 15.937a14.33 14.33 0 0 0 -4.867 10.7v4.229a12.042 12.042 0 0 0 5.56 10.129 11.189 11.189 0 0 1 5.1 8.314l.433 4.172a10.839 10.839 0 0 0 10.862 9.787h10.562a19.536 19.536 0 0 0 17.928-11.659l.635-1.422a11.2 11.2 0 0 1 6.106-5.9 96.559 96.559 0 0 1 -88.839 58.975zm327.649-39.135a13.137 13.137 0 0 1 -13.287 13.138h-232.005a108.285 108.285 0 0 0 21.99-41l128.1-.048a5.988 5.988 0 0 0 4.5-2.052l52.639-51.655a17.4 17.4 0 0 0 5.063-12.451v-264.645c0-8.641-6.833-16.149-15.474-16.149h-26.526v-17.777a6.181 6.181 0 0 0 -5.983-6.223h-58.017v-11.185a45.294 45.294 0 0 0 -.206-5.815h125.919a13.491 13.491 0 0 1 13.287 13.552z" fill="url(#linear-gradient)"/><path d="m389 220h-28a6 6 0 0 0 -6 6v119a6 6 0 0 0 6 6h28a6 6 0 0 0 6-6v-119a6 6 0 0 0 -6-6zm-6 119h-16v-107h16z" fill="url(#linear-gradient-2)"/><path d="m331 256h-28a6 6 0 0 0 -6 6v83a6 6 0 0 0 6 6h28a6 6 0 0 0 6-6v-83a6 6 0 0 0 -6-6zm-6 83h-16v-71h16z" fill="url(#linear-gradient-3)"/><path d="m273 293h-28a6 6 0 0 0 -6 6v46a6 6 0 0 0 6 6h28a6 6 0 0 0 6-6v-46a6 6 0 0 0 -6-6zm-5 46h-17v-34h17z" fill="url(#linear-gradient-4)"/><path d="m242.589 248.332a6 6 0 0 0 -1.5-8.353l-21-14.625a6 6 0 0 0 -6.857 9.848l21 14.625a6 6 0 0 0 8.352-1.5z" fill="url(#linear-gradient-5)"/><path d="m308.2 224.317a6 6 0 0 0 -8.455-.718l-23.182 19.551a6 6 0 0 0 7.737 9.173l23.181-19.551a6 6 0 0 0 .719-8.455z" fill="url(#linear-gradient-6)"/><path d="m365.792 175.8a6 6 0 0 0 -8.478-.369l-23.05 21.127a6 6 0 1 0 8.108 8.846l23.05-21.127a6 6 0 0 0 .37-8.477z" fill="url(#linear-gradient-7)"/><path d="m185.97 147h67.171a6 6 0 1 0 0-12h-67.171a6 6 0 0 0 0 12z" fill="url(#linear-gradient-8)"/><path d="m212.579 172a6 6 0 0 0 6 6h75.521a6 6 0 0 0 0-12h-75.521a6 6 0 0 0 -6 6z" fill="url(#linear-gradient-9)"/><path d="m202.786 172a6 6 0 0 0 -6-6h-10.816a6 6 0 0 0 0 12h10.816a6 6 0 0 0 6-6z" fill="url(#linear-gradient-10)"/><circle cx="200.702" cy="217.087" fill="url(#linear-gradient-11)" r="11.12"/><path d="m248.976 253.952a11.12 11.12 0 1 0 11.12-11.12 11.132 11.132 0 0 0 -11.12 11.12z" fill="url(#linear-gradient-12)"/><circle cx="320.514" cy="215.039" fill="url(#linear-gradient-13)" r="11.12"/><circle cx="377.86" cy="164.861" fill="url(#linear-gradient-14)" r="11.12"/></svg>