<svg id="Layer_1" height="512" viewBox="0 0 512 512" width="512" xmlns="http://www.w3.org/2000/svg" xmlns:xlink="http://www.w3.org/1999/xlink" data-name="Layer 1"><linearGradient id="linear-gradient" gradientUnits="userSpaceOnUse" x1="88.77" x2="88.77" y1="480" y2="69.634"><stop offset=".322" stop-color="#a163f5"/><stop offset=".466" stop-color="#b074ee"/><stop offset=".752" stop-color="#d8a1dd"/><stop offset=".898" stop-color="#efbad3"/></linearGradient><linearGradient id="linear-gradient-2" x1="136.469" x2="136.469" xlink:href="#linear-gradient" y1="480" y2="69.634"/><linearGradient id="linear-gradient-3" x1="101.213" x2="101.213" xlink:href="#linear-gradient" y1="480" y2="69.634"/><linearGradient id="linear-gradient-4" x1="247.051" x2="247.051" xlink:href="#linear-gradient" y1="480" y2="69.634"/><linearGradient id="linear-gradient-5" x1="294.643" x2="294.643" xlink:href="#linear-gradient" y1="480" y2="69.634"/><linearGradient id="linear-gradient-6" x1="467.662" x2="467.662" xlink:href="#linear-gradient" y1="480" y2="69.634"/><linearGradient id="linear-gradient-7" x1="295" x2="295" xlink:href="#linear-gradient" y1="480" y2="69.634"/><linearGradient id="linear-gradient-8" x1="393.729" x2="393.729" xlink:href="#linear-gradient" y1="480" y2="69.634"/><linearGradient id="linear-gradient-9" x1="347.343" x2="347.343" xlink:href="#linear-gradient" y1="480" y2="69.634"/><linearGradient id="linear-gradient-10" x1="190.601" x2="190.601" xlink:href="#linear-gradient" y1="480" y2="69.634"/><linearGradient id="linear-gradient-11" x1="469.858" x2="469.858" xlink:href="#linear-gradient" y1="480" y2="69.634"/><linearGradient id="linear-gradient-12" x1="499.262" x2="499.262" xlink:href="#linear-gradient" y1="480" y2="69.634"/><linearGradient id="linear-gradient-13" x1="139.216" x2="139.216" xlink:href="#linear-gradient" y1="480" y2="69.634"/><linearGradient id="linear-gradient-14" x1="490.187" x2="490.188" xlink:href="#linear-gradient" y1="480" y2="69.634"/><linearGradient id="linear-gradient-15" x1="242.347" x2="242.347" xlink:href="#linear-gradient" y1="480" y2="69.634"/><path d="m88.77 349.308a16.369 16.369 0 1 0 16.37 16.369 16.388 16.388 0 0 0 -16.37-16.369zm0 20.738a4.369 4.369 0 1 1 4.37-4.369 4.374 4.374 0 0 1 -4.37 4.369z" fill="url(#linear-gradient)"/><path d="m136.469 168.438a16.37 16.37 0 1 0 -16.369-16.369 16.387 16.387 0 0 0 16.369 16.369zm0-20.739a4.37 4.37 0 1 1 -4.369 4.37 4.375 4.375 0 0 1 4.369-4.369z" fill="url(#linear-gradient-2)"/><path d="m101.213 194.361a8.074 8.074 0 1 0 -8.073-8.073 8.083 8.083 0 0 0 8.073 8.073z" fill="url(#linear-gradient-3)"/><path d="m485.163 279.19-16.545-6.07a36.454 36.454 0 0 1 -7.735-64.305l14.621-9.883a6 6 0 0 0 -4.167-10.916l-17.451 2.369a35.3 35.3 0 0 1 -34.316-15.179 35.927 35.927 0 0 1 -2.145-38.135l7.692-14.3c.01-.01.023-.016.032-.026l20.785-20.784a6 6 0 0 0 -8.485-8.486l-20.09 20.09c-.1.066-.218.117-.321.19l-14.358 10.265a35.168 35.168 0 0 1 -37.392 2.622 35.72 35.72 0 0 1 -19.447-32.73l.232-17.737a6 6 0 0 0 -11.356-2.781l-7.977 15.814a35.874 35.874 0 0 1 -64.194 0l-7.977-15.814a6 6 0 0 0 -11.356 2.781l.232 17.737a35.72 35.72 0 0 1 -19.445 32.73 35.168 35.168 0 0 1 -37.392-2.622l-14.359-10.268c-.058-.041-.121-.068-.18-.107l-12.926-14.064a5.976 5.976 0 0 0 -10.382 4.382 164.889 164.889 0 0 0 -92.15 44.1c-.073.065-.142.134-.213.2q-3.443 3.286-6.726 6.778a165.867 165.867 0 0 0 -26.187 37.059c-.037.07-.075.139-.109.209a165.24 165.24 0 0 0 -18.37 75.9c0 1.841.041 3.672.1 5.5a6 6 0 0 0 .1 2.65c4.264 87.59 76.857 157.539 165.485 157.539a167.079 167.079 0 0 0 29.748-2.669 5.984 5.984 0 0 0 10.539 3.771l11.5-13.431a35.909 35.909 0 0 1 62.329 15.5l3.988 17.277a6 6 0 0 0 11.693 0l3.989-17.277a35.908 35.908 0 0 1 62.328-15.5l11.504 13.431a6 6 0 0 0 10.365-5.405l-4.44-17.165a35.86 35.86 0 0 1 11.144-36.51 35.189 35.189 0 0 1 36.9-6.45l16.381 6.507a6 6 0 0 0 6.668-9.6l-11.85-13.121a35.908 35.908 0 0 1 -6.992-37.486 35.461 35.461 0 0 1 29.751-23.083l17.507-1.906a6 6 0 0 0 1.417-11.6zm-426.727-115.952c1.14-1.22 2.3-2.411 3.479-3.589a21.84 21.84 0 1 1 -25.938 34.536 153.968 153.968 0 0 1 22.459-30.947zm-41.113 114.7a29.923 29.923 0 1 1 14.528 56.125 152.527 152.527 0 0 1 -14.528-56.126zm187.727 134.5-1.534 5.935a153.764 153.764 0 0 1 -165.551-72.773 41.931 41.931 0 1 0 -20.92-80.738 153.319 153.319 0 0 1 13.381-59.562 33.826 33.826 0 1 0 40.593-54.08 152.843 152.843 0 0 1 86.1-36.106l6.842 7.446c.063.069.134.129.2.2l7.7 14.317a35.925 35.925 0 0 1 -2.144 38.134 35.3 35.3 0 0 1 -34.317 15.18l-17.45-2.369a6 6 0 0 0 -4.167 10.916l14.621 9.883a36.454 36.454 0 0 1 -7.735 64.305l-16.545 6.07a6 6 0 0 0 1.417 11.6l17.506 1.906a35.461 35.461 0 0 1 29.753 23.075 35.91 35.91 0 0 1 -6.991 37.486l-11.85 13.121a6 6 0 0 0 6.668 9.6l16.373-6.51a35.188 35.188 0 0 1 36.9 6.45 35.86 35.86 0 0 1 11.15 36.51zm220.224-100.932a48.307 48.307 0 0 0 5.383 44.859 47.569 47.569 0 0 0 -43.217 10.56 48.2 48.2 0 0 0 -16.021 42.238 47.894 47.894 0 0 0 -76.776 19.037 47.856 47.856 0 0 0 -76.778-19.037 48.2 48.2 0 0 0 -16.019-42.238 47.57 47.57 0 0 0 -43.218-10.56 48.431 48.431 0 0 0 -28.09-74.516 47.842 47.842 0 0 0 25.471-36.832c1.958-16.06-4.068-32.017-15.92-42.017h.2a47.838 47.838 0 0 0 39.29-20.817 48.438 48.438 0 0 0 5.491-44.956 47.514 47.514 0 0 0 44.487.086 48.065 48.065 0 0 0 25.555-37.122 47.861 47.861 0 0 0 79.065-.013 48.036 48.036 0 0 0 25.555 37.1 47.517 47.517 0 0 0 44.486-.123 48.58 48.58 0 0 0 5.492 45.027 47.836 47.836 0 0 0 39.29 20.818h.2c-11.852 10-17.878 25.957-15.92 42.017a47.961 47.961 0 0 0 25.471 36.9 47.789 47.789 0 0 0 -33.477 29.589z" fill="url(#linear-gradient-4)"/><path d="m294.643 145.479a119.073 119.073 0 1 0 119.072 119.072 119.208 119.208 0 0 0 -119.072-119.072zm0 226.145a107.073 107.073 0 1 1 107.072-107.073 107.195 107.195 0 0 1 -107.072 107.073z" fill="url(#linear-gradient-5)"/><path d="m465.891 79.515a5.982 5.982 0 0 0 4.242-1.757l3.543-3.543a6 6 0 0 0 -8.485-8.486l-3.543 3.543a6 6 0 0 0 4.243 10.243z" fill="url(#linear-gradient-6)"/><path d="m295 468.925a6 6 0 0 0 -6 6v2.438a6 6 0 1 0 12 0v-2.438a6 6 0 0 0 -6-6z" fill="url(#linear-gradient-7)"/><path d="m397.791 445.114a6 6 0 0 0 -10.476 5.854l2.351 4.208a6 6 0 0 0 10.476-5.853z" fill="url(#linear-gradient-8)"/><path d="m343.97 59.293a5.995 5.995 0 0 0 7.251-4.407l3.9-16a6 6 0 0 0 -11.658-2.844l-3.9 16a6 6 0 0 0 4.407 7.251z" fill="url(#linear-gradient-9)"/><path d="m196.409 446.155a6 6 0 0 0 -8.281 1.851l-5.187 8.174a6 6 0 1 0 10.133 6.429l5.187-8.173a6 6 0 0 0 -1.852-8.281z" fill="url(#linear-gradient-10)"/><path d="m476.7 378.1-7.632-4.452a6 6 0 1 0 -6.046 10.365l7.631 4.452a6 6 0 0 0 6.047-10.365z" fill="url(#linear-gradient-11)"/><path d="m501 279h-3.476a6 6 0 0 0 0 12h3.476a6 6 0 0 0 0-12z" fill="url(#linear-gradient-12)"/><path d="m137.674 93.953a6 6 0 0 0 8.836-8.12l-5.751-6.258a6 6 0 0 0 -8.836 8.12z" fill="url(#linear-gradient-13)"/><path d="m499.073 182.82a6 6 0 0 0 -7.814-3.306l-6.651 2.7a6 6 0 1 0 4.508 11.121l6.651-2.7a6 6 0 0 0 3.306-7.815z" fill="url(#linear-gradient-14)"/><path d="m238.852 56.7a6 6 0 0 0 11.7-2.659l-4.711-20.729a6 6 0 1 0 -11.7 2.659z" fill="url(#linear-gradient-15)"/></svg>