<svg id="Layer_1" height="512" viewBox="0 0 512 512" width="512" xmlns="http://www.w3.org/2000/svg" xmlns:xlink="http://www.w3.org/1999/xlink" data-name="Layer 1"><linearGradient id="linear-gradient" gradientUnits="userSpaceOnUse" x1="161.08" x2="161.08" y1="480" y2="69.634"><stop offset=".322" stop-color="#a163f5"/><stop offset=".466" stop-color="#b074ee"/><stop offset=".752" stop-color="#d8a1dd"/><stop offset=".898" stop-color="#efbad3"/></linearGradient><linearGradient id="linear-gradient-2" x1="379.092" x2="379.092" xlink:href="#linear-gradient" y1="480" y2="69.634"/><linearGradient id="linear-gradient-3" x1="75.092" x2="75.092" xlink:href="#linear-gradient" y1="480" y2="69.634"/><linearGradient id="linear-gradient-4" x1="397.038" x2="397.038" xlink:href="#linear-gradient" y1="480" y2="69.634"/><linearGradient id="linear-gradient-5" x1="219.038" x2="219.038" xlink:href="#linear-gradient" y1="480" y2="69.634"/><linearGradient id="linear-gradient-6" x1="104.038" x2="104.038" xlink:href="#linear-gradient" y1="480" y2="69.634"/><linearGradient id="linear-gradient-7" x1="362.952" x2="362.952" xlink:href="#linear-gradient" y1="480" y2="69.634"/><linearGradient id="linear-gradient-8" x1="461.15" x2="461.15" xlink:href="#linear-gradient" y1="480" y2="69.634"/><linearGradient id="linear-gradient-9" x1="448.916" x2="448.916" xlink:href="#linear-gradient" y1="480" y2="69.634"/><linearGradient id="linear-gradient-10" x1="421.48" x2="421.48" xlink:href="#linear-gradient" y1="480" y2="69.634"/><linearGradient id="linear-gradient-11" x1="390.539" x2="390.539" xlink:href="#linear-gradient" y1="480" y2="69.634"/><linearGradient id="linear-gradient-12" x1="486.15" x2="486.15" xlink:href="#linear-gradient" y1="480" y2="69.634"/><linearGradient id="linear-gradient-13" x1="450.809" x2="450.809" xlink:href="#linear-gradient" y1="480" y2="69.634"/><linearGradient id="linear-gradient-14" x1="419.553" x2="419.553" xlink:href="#linear-gradient" y1="480" y2="69.634"/><linearGradient id="linear-gradient-15" x1="474.972" x2="474.972" xlink:href="#linear-gradient" y1="480" y2="69.634"/><linearGradient id="linear-gradient-16" x1="438.498" x2="438.498" xlink:href="#linear-gradient" y1="480" y2="69.634"/><linearGradient id="linear-gradient-17" x1="402.072" x2="402.072" xlink:href="#linear-gradient" y1="480" y2="69.634"/><linearGradient id="linear-gradient-18" x1="295.931" x2="295.931" xlink:href="#linear-gradient" y1="480" y2="69.634"/><linearGradient id="linear-gradient-19" x1="318.437" x2="318.438" xlink:href="#linear-gradient" y1="480" y2="69.634"/><linearGradient id="linear-gradient-20" x1="430.735" x2="430.735" xlink:href="#linear-gradient" y1="480" y2="69.634"/><linearGradient id="linear-gradient-21" x1="420.08" x2="420.08" xlink:href="#linear-gradient" y1="480" y2="69.634"/><linearGradient id="linear-gradient-22" x1="337.727" x2="337.727" xlink:href="#linear-gradient" y1="480" y2="69.634"/><linearGradient id="linear-gradient-23" x1="450.735" x2="450.735" xlink:href="#linear-gradient" y1="480" y2="69.634"/><linearGradient id="linear-gradient-24" x1="330.227" x2="330.227" xlink:href="#linear-gradient" y1="480" y2="69.634"/><linearGradient id="linear-gradient-25" x1="324.227" x2="324.227" xlink:href="#linear-gradient" y1="480" y2="69.634"/><linearGradient id="linear-gradient-26" x1="354.227" x2="354.227" xlink:href="#linear-gradient" y1="480" y2="69.634"/><path d="m161.079 168.368c-81.8 0-148.352 66.55-148.352 148.353s66.55 148.352 148.352 148.352 148.354-66.551 148.354-148.352-66.551-148.353-148.354-148.353zm-66.527 29.37 15.323 11.523a51.038 51.038 0 0 0 4.834 3.213 38.944 38.944 0 0 1 12.246 11.34l9.657 13.928a9.15 9.15 0 0 1 -.273 10.839l-4.48 5.812a4.316 4.316 0 0 1 -3.954 1.643l-5.084-.651a24.341 24.341 0 0 0 -24.155 11.925 4.489 4.489 0 0 1 -4.444 2.043l-11.622-1.477a24.951 24.951 0 0 0 -23.918 10.81 22.847 22.847 0 0 0 -.387 25.045l7.751 12.239a21.763 21.763 0 0 0 28.554 7.511l7.98-4.275a8.712 8.712 0 0 1 8.552.207l15.144 9.087a9.73 9.73 0 0 0 5.253 1.382h.335a15.465 15.465 0 0 1 12.323 6.824l7.408 10.327c.616.859 1.274 1.7 1.956 2.5l9 10.584-13.839 10.627a29.509 29.509 0 0 0 -10.283 14.793l-4.894 15.874a3.958 3.958 0 0 1 -.744 1.376l-4.763 5.728a33.588 33.588 0 0 0 -6.867 13.475l-3.211-19.265a26.867 26.867 0 0 0 -5.12-11.834l-16.443-21.557a13.032 13.032 0 0 1 -2.215-4.459l-5.426-19.575a26.619 26.619 0 0 0 -18.566-18.489l-1.18-.324a9.186 9.186 0 0 1 -3.87-2.168l-10.12-9.525a16.941 16.941 0 0 1 -3.024-3.794 28.6 28.6 0 0 0 -25.8-14.181 136.67 136.67 0 0 1 68.366-99.081zm66.527 255.335c-75.184 0-136.352-61.167-136.352-136.352 0-2.6.08-5.18.224-7.743a16.556 16.556 0 0 1 16.672 8.072 28.963 28.963 0 0 0 5.158 6.483l10.12 9.525a21.244 21.244 0 0 0 8.937 5.006l1.183.324a14.569 14.569 0 0 1 10.161 10.117l5.425 19.575a25.032 25.032 0 0 0 4.239 8.533l16.438 21.553a14.809 14.809 0 0 1 2.825 6.528l4.469 26.808a9.793 9.793 0 0 0 9.7 8.306 9.772 9.772 0 0 0 3.784-.761 13.54 13.54 0 0 0 8.264-11.281 21.116 21.116 0 0 1 4.927-11.58l4.762-5.728a15.9 15.9 0 0 0 2.985-5.512l4.894-15.877a17.577 17.577 0 0 1 6.125-8.81l14.559-11.179a11.127 11.127 0 0 0 4.284-7.061 10.978 10.978 0 0 0 -2.473-8.856l-9.695-11.405c-.469-.552-.922-1.132-1.347-1.724l-7.409-10.328a27.43 27.43 0 0 0 -22.038-11.829l-14.6-8.754a20.766 20.766 0 0 0 -20.392-.5l-7.975 4.277a9.716 9.716 0 0 1 -12.749-3.354l-7.751-12.238a10.85 10.85 0 0 1 .183-11.895 13 13 0 0 1 12.468-5.636l11.626 1.477a16.4 16.4 0 0 0 16.329-7.913 12.355 12.355 0 0 1 12.263-6.055l5.085.65a16.361 16.361 0 0 0 14.976-6.22l4.48-5.812a21.107 21.107 0 0 0 .631-25l-9.658-13.928a51.027 51.027 0 0 0 -16.046-14.859 38.832 38.832 0 0 1 -3.69-2.452l-10.518-7.91a136.115 136.115 0 0 1 136.678 16.22l-2.081 2.9a186.466 186.466 0 0 0 -23.347 31.672l-5.286 9.037a12.971 12.971 0 0 0 1.546 14.952 18.367 18.367 0 0 0 11.587 6.14l2.533.312a19.185 19.185 0 0 1 16 13.466 18.7 18.7 0 0 1 -5.5 19.392l-24.924 22.154a17.379 17.379 0 0 0 -5.768 13.125v5.875a14.22 14.22 0 0 0 6.449 12.113 17.763 17.763 0 0 1 8.05 13.288l.549 5.957a12.818 12.818 0 0 0 12.717 11.642h14.68a24.964 24.964 0 0 0 22.778-14.967l.881-2.055a17.971 17.971 0 0 1 15.532-10.79 136.564 136.564 0 0 1 -128.557 90.885zm132.248-103.111c-.2.019-.4.035-.6.044l-3.45.157a29.878 29.878 0 0 0 -26.163 17.947l-.882 2.1a12.959 12.959 0 0 1 -11.787 7.79h-14.68a.878.878 0 0 1 -.814-.83l-.588-5.913a29.658 29.658 0 0 0 -13.408-22.2 2.288 2.288 0 0 1 -.955-2.057v-5.879a5.379 5.379 0 0 1 1.713-4.13l25-22.151a30.713 30.713 0 0 0 9.008-31.867 31.22 31.22 0 0 0 -26.042-21.895l-2.541-.312a6.385 6.385 0 0 1 -4.03-2.133 1 1 0 0 1 -.188-1.047l5.252-8.98a174.453 174.453 0 0 1 22.073-29.883 5.9 5.9 0 0 0 .458-.564l1.8-2.515a136.253 136.253 0 0 1 40.822 134.314z" fill="url(#linear-gradient)"/><path d="m395.994 341.715a6 6 0 0 0 0-11.381 17.836 17.836 0 0 1 -11.208-11.246 6 6 0 0 0 -11.388 0 17.839 17.839 0 0 1 -11.209 11.247 6 6 0 0 0 0 11.381 17.84 17.84 0 0 1 11.211 11.245 6 6 0 0 0 11.388 0 17.836 17.836 0 0 1 11.206-11.246zm-16.9-2.558a30.226 30.226 0 0 0 -3.127-3.133 30.118 30.118 0 0 0 3.127-3.132 29.923 29.923 0 0 0 3.127 3.132 30.03 30.03 0 0 0 -3.129 3.133z" fill="url(#linear-gradient-2)"/><path d="m58.189 136.715a17.84 17.84 0 0 1 11.211 11.246 6 6 0 0 0 11.388 0 17.836 17.836 0 0 1 11.208-11.246 6 6 0 0 0 0-11.381 17.836 17.836 0 0 1 -11.208-11.246 6 6 0 0 0 -11.388 0 17.839 17.839 0 0 1 -11.209 11.247 6 6 0 0 0 0 11.381zm16.9-8.823a29.923 29.923 0 0 0 3.127 3.132 30.03 30.03 0 0 0 -3.127 3.133 30.226 30.226 0 0 0 -3.127-3.133 30.118 30.118 0 0 0 3.13-3.132z" fill="url(#linear-gradient-3)"/><ellipse cx="397.038" cy="389.024" fill="url(#linear-gradient-4)" rx="10.985" ry="11"/><path d="m219.038 467.024a11 11 0 1 0 10.985 11 11 11 0 0 0 -10.985-11zm0 12a1 1 0 1 1 1.015-1 1.009 1.009 0 0 1 -1.015 1z" fill="url(#linear-gradient-5)"/><ellipse cx="104.038" cy="96.024" fill="url(#linear-gradient-6)" rx="10.985" ry="11"/><path d="m449.326 157.044a6 6 0 1 0 -7.185-9.61l-72.553 54.249a52.167 52.167 0 0 1 -62.478-83.558l93.168-69.663a6 6 0 1 0 -7.185-9.61l-93.168 69.663a64.166 64.166 0 0 0 76.848 102.778z" fill="url(#linear-gradient-7)"/><path d="m458.094 135.505-1.071.8a6 6 0 1 0 7.184 9.612l1.07-.8a6 6 0 0 0 -7.183-9.613z" fill="url(#linear-gradient-8)"/><path d="m444 42.969a5.971 5.971 0 0 0 3.778-1.342l9.843-7.994a6 6 0 0 0 -7.564-9.315l-9.843 7.994a6 6 0 0 0 3.786 10.657z" fill="url(#linear-gradient-9)"/><path d="m412.535 68.521a5.972 5.972 0 0 0 3.778-1.343l17.9-14.534a6 6 0 0 0 -7.565-9.316l-17.9 14.535a6 6 0 0 0 3.786 10.658z" fill="url(#linear-gradient-10)"/><path d="m393.231 70.465-12.95 10.517a6 6 0 0 0 7.565 9.316l12.954-10.517a6 6 0 0 0 -7.565-9.316z" fill="url(#linear-gradient-11)"/><path d="m486.745 68.617-8.916 7.5a6 6 0 0 0 7.727 9.182l8.916-7.5a6 6 0 0 0 -7.727-9.182z" fill="url(#linear-gradient-12)"/><path d="m462.109 89.348-30.328 25.52a6 6 0 0 0 7.727 9.181l30.328-25.52a6 6 0 0 0 -7.727-9.181z" fill="url(#linear-gradient-13)"/><path d="m417.055 141.1a5.981 5.981 0 0 0 3.86-1.409l5-4.209a6 6 0 1 0 -7.727-9.182l-5 4.208a6 6 0 0 0 3.867 10.592z" fill="url(#linear-gradient-14)"/><path d="m489.57 32.249-36.6 28.712a6 6 0 1 0 7.406 9.441l36.6-28.712a6 6 0 1 0 -7.407-9.441z" fill="url(#linear-gradient-15)"/><path d="m430.924 85.878a6 6 0 0 0 8.424 1.018l5.707-4.477a6 6 0 0 0 -7.407-9.441l-5.707 4.477a6 6 0 0 0 -1.017 8.423z" fill="url(#linear-gradient-16)"/><path d="m424.785 90.661a6 6 0 0 0 -8.429-.981l-36.016 28.507a6 6 0 1 0 7.447 9.409l36.013-28.507a6 6 0 0 0 .985-8.428z" fill="url(#linear-gradient-17)"/><circle cx="295.931" cy="86.928" fill="url(#linear-gradient-18)" r="8.5"/><circle cx="318.438" cy="68.589" fill="url(#linear-gradient-19)" r="6.5"/><circle cx="430.735" cy="188.842" fill="url(#linear-gradient-20)" r="8"/><path d="m420.08 37.8a7.39 7.39 0 1 0 -7.39-7.39 7.4 7.4 0 0 0 7.39 7.39z" fill="url(#linear-gradient-21)"/><path d="m297.727 160.073a40 40 0 1 0 40-40 40.045 40.045 0 0 0 -40 40zm68 0a28 28 0 1 1 -28-28 28.031 28.031 0 0 1 28 28z" fill="url(#linear-gradient-22)"/><circle cx="450.735" cy="175.842" fill="url(#linear-gradient-23)" r="6.5"/><circle cx="330.227" cy="175.573" fill="url(#linear-gradient-24)" r="6.5"/><circle cx="324.227" cy="153.573" fill="url(#linear-gradient-25)" r="6.5"/><circle cx="354.227" cy="167.573" fill="url(#linear-gradient-26)" r="6.5"/></svg>