<svg id="Layer_1" height="512" viewBox="0 0 512 512" width="512" xmlns="http://www.w3.org/2000/svg" xmlns:xlink="http://www.w3.org/1999/xlink" data-name="Layer 1"><linearGradient id="linear-gradient" gradientUnits="userSpaceOnUse" x1="53.404" x2="53.404" y1="480" y2="69.634"><stop offset=".322" stop-color="#a163f5"/><stop offset=".466" stop-color="#b074ee"/><stop offset=".752" stop-color="#d8a1dd"/><stop offset=".898" stop-color="#efbad3"/></linearGradient><linearGradient id="linear-gradient-2" x1="397.346" x2="397.346" xlink:href="#linear-gradient" y1="480" y2="69.634"/><linearGradient id="linear-gradient-3" x1="313.716" x2="313.716" xlink:href="#linear-gradient" y1="480" y2="69.634"/><linearGradient id="linear-gradient-4" x1="184.149" x2="184.149" xlink:href="#linear-gradient" y1="480" y2="69.634"/><linearGradient id="linear-gradient-5" x1="358.476" x2="358.476" xlink:href="#linear-gradient" y1="480" y2="69.634"/><linearGradient id="linear-gradient-6" x1="135.793" x2="135.793" xlink:href="#linear-gradient" y1="480" y2="69.634"/><linearGradient id="linear-gradient-7" x1="432.034" x2="432.034" xlink:href="#linear-gradient" y1="480" y2="69.634"/><linearGradient id="linear-gradient-8" x1="100.519" x2="100.519" xlink:href="#linear-gradient" y1="480" y2="69.634"/><linearGradient id="linear-gradient-9" x1="311.361" x2="311.361" xlink:href="#linear-gradient" y1="480" y2="69.634"/><linearGradient id="linear-gradient-10" x1="178.26" x2="178.26" xlink:href="#linear-gradient" y1="480" y2="69.634"/><linearGradient id="linear-gradient-11" x1="12.178" x2="12.178" xlink:href="#linear-gradient" y1="480" y2="69.634"/><linearGradient id="linear-gradient-12" x1="404.414" x2="404.414" xlink:href="#linear-gradient" y1="480" y2="69.634"/><linearGradient id="linear-gradient-13" x1="29.409" x2="29.409" xlink:href="#linear-gradient" y1="480" y2="69.634"/><linearGradient id="linear-gradient-14" x1="19.245" x2="19.245" xlink:href="#linear-gradient" y1="480" y2="69.634"/><linearGradient id="linear-gradient-15" x1="469.774" x2="469.774" xlink:href="#linear-gradient" y1="480" y2="69.634"/><linearGradient id="linear-gradient-16" x1="499.822" x2="499.822" xlink:href="#linear-gradient" y1="480" y2="69.634"/><linearGradient id="linear-gradient-17" x1="449.774" x2="449.774" xlink:href="#linear-gradient" y1="480" y2="69.634"/><linearGradient id="linear-gradient-18" x1="219.486" x2="219.486" xlink:href="#linear-gradient" y1="480" y2="69.634"/><linearGradient id="linear-gradient-19" x1="124.077" x2="124.077" xlink:href="#linear-gradient" y1="480" y2="69.634"/><linearGradient id="linear-gradient-20" x1="341.986" x2="341.986" xlink:href="#linear-gradient" y1="480" y2="69.634"/><linearGradient id="linear-gradient-21" x1="221" x2="221" xlink:href="#linear-gradient" y1="480" y2="69.634"/><linearGradient id="linear-gradient-23" x1="241" x2="241" xlink:href="#linear-gradient" y1="480" y2="69.634"/><linearGradient id="linear-gradient-25" x1="201" x2="201" xlink:href="#linear-gradient" y1="480" y2="69.634"/><linearGradient id="linear-gradient-27" x1="342" x2="342" xlink:href="#linear-gradient" y1="480" y2="69.634"/><linearGradient id="linear-gradient-29" x1="362" x2="362" xlink:href="#linear-gradient" y1="480" y2="69.634"/><linearGradient id="linear-gradient-31" x1="322" x2="322" xlink:href="#linear-gradient" y1="480" y2="69.634"/><linearGradient id="linear-gradient-33" x1="124" x2="124" xlink:href="#linear-gradient" y1="480" y2="69.634"/><linearGradient id="linear-gradient-35" x1="144" x2="144" xlink:href="#linear-gradient" y1="480" y2="69.634"/><linearGradient id="linear-gradient-37" x1="104" x2="104" xlink:href="#linear-gradient" y1="480" y2="69.634"/><path d="m72.975 197.894a22.083 22.083 0 0 1 -13.875-13.922 6 6 0 0 0 -11.387 0 22.089 22.089 0 0 1 -13.878 13.923 6 6 0 0 0 0 11.38 22.089 22.089 0 0 1 13.876 13.925 6 6 0 0 0 11.388 0 22.081 22.081 0 0 1 13.876-13.923 6 6 0 0 0 0-11.38zm-19.575 11.05a34.414 34.414 0 0 0 -5.35-5.36 34.371 34.371 0 0 0 5.35-5.36 34.328 34.328 0 0 0 5.35 5.36 34.328 34.328 0 0 0 -5.35 5.36z" fill="url(#linear-gradient)"/><path d="m416.917 282.7a22.087 22.087 0 0 1 -13.878-13.922 6 6 0 0 0 -11.387 0 22.081 22.081 0 0 1 -13.877 13.922 6 6 0 0 0 0 11.381 22.083 22.083 0 0 1 13.877 13.919 6 6 0 0 0 11.387 0 22.086 22.086 0 0 1 13.878-13.923 6 6 0 0 0 0-11.381zm-19.571 11.051a34.328 34.328 0 0 0 -5.35-5.36 34.328 34.328 0 0 0 5.35-5.36 34.377 34.377 0 0 0 5.351 5.36 34.334 34.334 0 0 0 -5.351 5.361z" fill="url(#linear-gradient-2)"/><path d="m333.287 465.273a22.077 22.077 0 0 1 -13.876-13.922 6 6 0 0 0 -11.388 0 22.083 22.083 0 0 1 -13.877 13.922 6 6 0 0 0 0 11.381 22.087 22.087 0 0 1 13.877 13.923 6 6 0 0 0 11.388 0 22.083 22.083 0 0 1 13.876-13.923 6 6 0 0 0 0-11.381zm-19.57 11.051a34.3 34.3 0 0 0 -5.352-5.36 34.3 34.3 0 0 0 5.352-5.36 34.364 34.364 0 0 0 5.349 5.36 34.321 34.321 0 0 0 -5.349 5.36z" fill="url(#linear-gradient-3)"/><path d="m178.456 71.25a6 6 0 0 0 11.387 0 22.081 22.081 0 0 1 13.877-13.922 6 6 0 0 0 0-11.381 22.083 22.083 0 0 1 -13.876-13.923 6 6 0 0 0 -11.388 0 22.089 22.089 0 0 1 -13.878 13.923 6 6 0 0 0 0 11.381 22.085 22.085 0 0 1 13.878 13.922zm5.693-24.973a34.371 34.371 0 0 0 5.35 5.36 34.371 34.371 0 0 0 -5.35 5.36 34.414 34.414 0 0 0 -5.35-5.36 34.371 34.371 0 0 0 5.35-5.36z" fill="url(#linear-gradient-4)"/><path d="m358.476 347.175a8.356 8.356 0 1 0 8.356 8.356 8.365 8.365 0 0 0 -8.356-8.356z" fill="url(#linear-gradient-5)"/><path d="m135.793 318.863a10.712 10.712 0 1 0 -10.711-10.712 10.724 10.724 0 0 0 10.711 10.712z" fill="url(#linear-gradient-6)"/><path d="m432.033 192.271a10.712 10.712 0 1 0 10.712 10.712 10.724 10.724 0 0 0 -10.712-10.712z" fill="url(#linear-gradient-7)"/><path d="m111.23 98.752a10.711 10.711 0 1 0 -10.71 10.712 10.722 10.722 0 0 0 10.71-10.712z" fill="url(#linear-gradient-8)"/><path d="m311.36 32.9a10.711 10.711 0 1 0 -10.711-10.71 10.723 10.723 0 0 0 10.711 10.71z" fill="url(#linear-gradient-9)"/><path d="m185.438 177.671a7.178 7.178 0 1 0 -7.178 7.178 7.186 7.186 0 0 0 7.178-7.178z" fill="url(#linear-gradient-10)"/><path d="m12.178 366.021a7.178 7.178 0 1 0 7.177 7.179 7.187 7.187 0 0 0 -7.177-7.179z" fill="url(#linear-gradient-11)"/><path d="m404.413 492.055a7.178 7.178 0 1 0 7.179 7.178 7.186 7.186 0 0 0 -7.179-7.178z" fill="url(#linear-gradient-12)"/><path d="m29.408 472.921a7.178 7.178 0 1 0 7.179 7.178 7.186 7.186 0 0 0 -7.179-7.178z" fill="url(#linear-gradient-13)"/><path d="m19.245 19.945a7.178 7.178 0 1 0 -7.178-7.178 7.186 7.186 0 0 0 7.178 7.178z" fill="url(#linear-gradient-14)"/><path d="m469.774 106.31a7.178 7.178 0 1 0 7.178 7.178 7.186 7.186 0 0 0 -7.178-7.178z" fill="url(#linear-gradient-15)"/><path d="m499.822 358.954a7.178 7.178 0 1 0 7.178 7.178 7.185 7.185 0 0 0 -7.178-7.178z" fill="url(#linear-gradient-16)"/><circle cx="449.774" cy="33.488" fill="url(#linear-gradient-17)" r="9"/><path d="m256.725 228.519a50.2 50.2 0 0 1 -31.546-31.644 6 6 0 0 0 -11.387 0 50.194 50.194 0 0 1 -31.545 31.643 6 6 0 0 0 0 11.38 50.19 50.19 0 0 1 31.544 31.643 6 6 0 0 0 11.388 0 50.2 50.2 0 0 1 31.546-31.641 6 6 0 0 0 0-11.38zm-37.24 26.881a62.513 62.513 0 0 0 -21.146-21.194 62.528 62.528 0 0 0 21.146-21.193 62.525 62.525 0 0 0 21.148 21.193 62.519 62.519 0 0 0 -21.148 21.194z" fill="url(#linear-gradient-18)"/><path d="m150.905 387.533a33.627 33.627 0 0 1 -21.134-21.2 6 6 0 0 0 -11.387 0 33.632 33.632 0 0 1 -21.136 21.2 6 6 0 0 0 0 11.381 33.632 33.632 0 0 1 21.136 21.2 6 6 0 0 0 11.387 0 33.629 33.629 0 0 1 21.134-21.2 6 6 0 0 0 0-11.381zm-26.828 17.382a45.888 45.888 0 0 0 -11.669-11.691 45.908 45.908 0 0 0 11.669-11.692 45.952 45.952 0 0 0 11.668 11.692 45.932 45.932 0 0 0 -11.668 11.691z" fill="url(#linear-gradient-19)"/><path d="m368.814 95.418a33.631 33.631 0 0 1 -21.135-21.2 6 6 0 0 0 -11.387 0 33.633 33.633 0 0 1 -21.135 21.2 6 6 0 0 0 0 11.381 33.629 33.629 0 0 1 21.135 21.201 6 6 0 0 0 11.387 0 33.629 33.629 0 0 1 21.135-21.2 6 6 0 0 0 0-11.381zm-26.829 17.382a45.9 45.9 0 0 0 -11.668-11.692 45.9 45.9 0 0 0 11.668-11.691 45.964 45.964 0 0 0 11.668 11.691 45.952 45.952 0 0 0 -11.668 11.692z" fill="url(#linear-gradient-20)"/><path d="m221 332.889a6 6 0 0 0 -6 6v7.662a6 6 0 0 0 12 0v-7.662a6 6 0 0 0 -6-6z" fill="url(#linear-gradient-21)"/><path d="m221 293.307a6 6 0 0 0 -6 6v23.034a6 6 0 0 0 12 0v-23.034a6 6 0 0 0 -6-6z" fill="url(#linear-gradient-21)"/><path d="m241 317.718a6 6 0 0 0 -6 6v7.663a6 6 0 0 0 12 0v-7.663a6 6 0 0 0 -6-6z" fill="url(#linear-gradient-23)"/><path d="m241 270.551a6 6 0 0 0 -6 6v30.62a6 6 0 1 0 12 0v-30.62a6 6 0 0 0 -6-6z" fill="url(#linear-gradient-23)"/><path d="m201 317.718a6 6 0 0 0 -6 6v7.663a6 6 0 0 0 12 0v-7.663a6 6 0 0 0 -6-6z" fill="url(#linear-gradient-25)"/><path d="m201 270.551a6 6 0 0 0 -6 6v30.62a6 6 0 0 0 12 0v-30.62a6 6 0 0 0 -6-6z" fill="url(#linear-gradient-25)"/><path d="m342 198.889a6 6 0 0 0 -6 6v7.662a6 6 0 0 0 12 0v-7.662a6 6 0 0 0 -6-6z" fill="url(#linear-gradient-27)"/><path d="m342 159.307a6 6 0 0 0 -6 6v23.034a6 6 0 0 0 12 0v-23.034a6 6 0 0 0 -6-6z" fill="url(#linear-gradient-27)"/><path d="m362 183.718a6 6 0 0 0 -6 6v7.663a6 6 0 0 0 12 0v-7.663a6 6 0 0 0 -6-6z" fill="url(#linear-gradient-29)"/><path d="m362 136.551a6 6 0 0 0 -6 6v30.62a6 6 0 1 0 12 0v-30.62a6 6 0 0 0 -6-6z" fill="url(#linear-gradient-29)"/><path d="m316 197.381a6 6 0 0 0 12 0v-7.663a6 6 0 1 0 -12 0z" fill="url(#linear-gradient-31)"/><path d="m322 179.171a6 6 0 0 0 6-6v-30.62a6 6 0 0 0 -12 0v30.62a6 6 0 0 0 6 6z" fill="url(#linear-gradient-31)"/><path d="m124 471.889a6 6 0 0 0 -6 6v17.662a6 6 0 0 0 12 0v-17.662a6 6 0 0 0 -6-6z" fill="url(#linear-gradient-33)"/><path d="m124 442.307a6 6 0 0 0 -6 6v13.034a6 6 0 0 0 12 0v-13.034a6 6 0 0 0 -6-6z" fill="url(#linear-gradient-33)"/><path d="m144 456.718a6 6 0 0 0 -6 6v7.663a6 6 0 0 0 12 0v-7.663a6 6 0 0 0 -6-6z" fill="url(#linear-gradient-35)"/><path d="m144 419.551a6 6 0 0 0 -6 6v20.62a6 6 0 1 0 12 0v-20.62a6 6 0 0 0 -6-6z" fill="url(#linear-gradient-35)"/><g fill="url(#linear-gradient-37)"><path d="m104 456.718a6 6 0 0 0 -6 6v7.663a6 6 0 0 0 12 0v-7.663a6 6 0 0 0 -6-6z"/><path d="m104 419.551a6 6 0 0 0 -6 6v20.62a6 6 0 1 0 12 0v-20.62a6 6 0 0 0 -6-6z"/></g></svg>