<svg id="Layer_1" height="512" viewBox="0 0 512 512" width="512" xmlns="http://www.w3.org/2000/svg" xmlns:xlink="http://www.w3.org/1999/xlink" data-name="Layer 1"><linearGradient id="linear-gradient" gradientUnits="userSpaceOnUse" x1="256" x2="256" y1="490.5" y2="71.693"><stop offset=".322" stop-color="#a163f5"/><stop offset=".466" stop-color="#b074ee"/><stop offset=".752" stop-color="#d8a1dd"/><stop offset=".898" stop-color="#efbad3"/></linearGradient><linearGradient id="linear-gradient-2" x1="401" x2="401" xlink:href="#linear-gradient" y1="490.5" y2="71.693"/><linearGradient id="linear-gradient-3" x1="400" x2="400" xlink:href="#linear-gradient" y1="490.5" y2="71.693"/><linearGradient id="linear-gradient-4" x1="421" x2="421" xlink:href="#linear-gradient" y1="490.5" y2="71.693"/><linearGradient id="linear-gradient-5" x1="420" x2="420" xlink:href="#linear-gradient" y1="490.5" y2="71.693"/><linearGradient id="linear-gradient-7" x1="106" x2="106" xlink:href="#linear-gradient" y1="490.5" y2="71.693"/><linearGradient id="linear-gradient-8" x1="105" x2="105" xlink:href="#linear-gradient" y1="490.5" y2="71.693"/><linearGradient id="linear-gradient-9" x1="126" x2="126" xlink:href="#linear-gradient" y1="490.5" y2="71.693"/><linearGradient id="linear-gradient-10" x1="125" x2="125" xlink:href="#linear-gradient" y1="490.5" y2="71.693"/><linearGradient id="linear-gradient-12" x1="348" x2="348" xlink:href="#linear-gradient" y1="490.5" y2="71.693"/><linearGradient id="linear-gradient-13" x1="228" x2="228" xlink:href="#linear-gradient" y1="490.5" y2="71.693"/><linearGradient id="linear-gradient-14" x1="168" x2="168" xlink:href="#linear-gradient" y1="490.5" y2="71.693"/><linearGradient id="linear-gradient-15" x1="263.559" x2="263.559" xlink:href="#linear-gradient" y1="490.5" y2="71.693"/><path d="m440.143 137h-128.143v-39.707c0-27.552-3.588-38.133-10.407-57.342-1.613-4.543-3.357-9.692-5.358-15.694a34.489 34.489 0 0 0 -65.459 0c-2 6-3.708 11.151-5.32 15.694-6.82 19.209-10.456 29.79-10.456 57.342v39.707h-143.143a33.6 33.6 0 0 0 -33.857 33.557v240.865a33.616 33.616 0 0 0 33.857 33.578h123.143v54h-24.8a6 6 0 0 0 0 12h176.624a6 6 0 1 0 0-12h-29.824v-54h123.143a33.616 33.616 0 0 0 33.857-33.578v-240.865a33.6 33.6 0 0 0 -33.857-33.557zm-128.143 98.938v-58.074c6 4.163 12.191 6.655 19.444 6.655a36.568 36.568 0 0 1 36.556 36.351v17.13h-56zm0 14.062h56v6h-56zm56 18v6h-9v-6zm-56 0h9v6h-9zm-85-114.721v-55.986c0-25.485 2.988-34.21 9.775-53.327 1.631-4.594 3.424-9.8 5.461-15.914 3.787-11.36 13.5-15.408 21.35-15.408s17.577 4.048 21.364 15.408c2.037 6.112 3.71 11.32 5.341 15.914 6.787 19.117 9.709 27.842 9.709 53.327v112.707h-73zm73 68.721v16h-16v-16zm34.578 123.463a6 6 0 0 0 6-6 15.385 15.385 0 0 1 30.7-1.417 36.125 36.125 0 0 0 -5.168 4.947 6 6 0 1 0 9.126 7.791 24.013 24.013 0 0 1 38.035 29.216h-316.308a23.2 23.2 0 0 1 -2.463-10.612 24.006 24.006 0 0 1 44.456-12.588 6 6 0 0 0 10.219-6.3 36.6 36.6 0 0 0 -3.578-4.84 19.777 19.777 0 0 1 19.188-17.738 19.212 19.212 0 0 1 13.878 5.624 20.619 20.619 0 0 1 6.171 14.618 22.212 22.212 0 0 0 22.187 22.186 6 6 0 0 0 0-12 10.2 10.2 0 0 1 -10.187-10.187 32.461 32.461 0 0 0 -3.291-14.163 7.781 7.781 0 0 1 15.457 1.4v3.209a23 23 0 1 0 46 0v-88.609h17v88.608a23 23 0 1 0 46 0v-11.337a8.277 8.277 0 0 1 15.7-3.706 27.235 27.235 0 0 0 -5.121 15.9 6 6 0 0 0 5.999 5.998zm-79.578-107.463v-16h17v16zm-28-2.062v-13.938h16v16h-16zm-177-65.381a21.587 21.587 0 0 1 21.857-21.557h143.143v4.279a19.438 19.438 0 0 1 -19.445 19.24 48.581 48.581 0 0 0 -48.555 48.351v58.7a6.542 6.542 0 0 0 6.189 6.43h20.534a6.619 6.619 0 0 0 6.277-6.427v-11.573h14v11.573a6.592 6.592 0 0 0 6.246 6.427h20.534a6.569 6.569 0 0 0 6.22-6.427v-29.573h16v88.608a11 11 0 1 1 -22 0v-3.208a19.769 19.769 0 0 0 -35.642-11.917 31.039 31.039 0 0 0 -20.828-7.552 31.837 31.837 0 0 0 -29.346 21.516 36.017 36.017 0 0 0 -52.684 31.941 34.308 34.308 0 0 0 1.587 10.612h-34.087zm109 85.443v-6h56v6zm56 12v6h-9v-6zm-47 0v6h-9v-6zm-9-30v-17.13a36.567 36.567 0 0 1 36.555-36.351c7.254 0 13.445-2.492 19.445-6.655v60.136zm146 261h-98v-54h98zm157-87.578a21.6 21.6 0 0 1 -21.857 21.578h-368.286a21.6 21.6 0 0 1 -21.857-21.578v-19.422h412zm0-31.422h-35.167a35.115 35.115 0 0 0 2.667-13.612 36.009 36.009 0 0 0 -47.154-34.248 27.371 27.371 0 0 0 -39.589-16.662 20.242 20.242 0 0 0 -36.757 11.793v11.337a11 11 0 1 1 -22 0v-88.608h16v29.573a6.674 6.674 0 0 0 6.337 6.427h20.534a6.489 6.489 0 0 0 6.129-6.427v-11.573h14v11.573a6.725 6.725 0 0 0 6.394 6.427h20.534c3.313 0 6.072-3.113 6.072-6.427v-58.7a48.581 48.581 0 0 0 -48.556-48.351 19.438 19.438 0 0 1 -19.444-19.243v-4.279h128.143a21.587 21.587 0 0 1 21.857 21.557z" fill="url(#linear-gradient)"/><circle cx="401" cy="296.856" fill="url(#linear-gradient-2)" r="6.5"/><path d="m400 285.356a6 6 0 0 0 6-6v-41a6 6 0 0 0 -12 0v41a6 6 0 0 0 6 6z" fill="url(#linear-gradient-3)"/><circle cx="421" cy="266.856" fill="url(#linear-gradient-4)" r="6.5"/><path d="m420 189.124a6 6 0 0 0 6-6v-10.768a6 6 0 0 0 -12 0v10.768a6 6 0 0 0 6 6z" fill="url(#linear-gradient-5)"/><path d="m420 255.356a6 6 0 0 0 6-6v-43.78a6 6 0 0 0 -12 0v43.78a6 6 0 0 0 6 6z" fill="url(#linear-gradient-5)"/><circle cx="106" cy="300.856" fill="url(#linear-gradient-7)" r="6.5"/><path d="m105 289.356a6 6 0 0 0 6-6v-41a6 6 0 0 0 -12 0v41a6 6 0 0 0 6 6z" fill="url(#linear-gradient-8)"/><circle cx="126" cy="270.856" fill="url(#linear-gradient-9)" r="6.5"/><path d="m125 193.124a6 6 0 0 0 6-6v-10.768a6 6 0 0 0 -12 0v10.768a6 6 0 0 0 6 6z" fill="url(#linear-gradient-10)"/><path d="m125 259.356a6 6 0 0 0 6-6v-43.78a6 6 0 0 0 -12 0v43.78a6 6 0 0 0 6 6z" fill="url(#linear-gradient-10)"/><circle cx="348" cy="361.356" fill="url(#linear-gradient-12)" r="7"/><circle cx="228" cy="311.356" fill="url(#linear-gradient-13)" r="7"/><circle cx="168" cy="351.356" fill="url(#linear-gradient-14)" r="7"/><path d="m263.559 51.979a34.061 34.061 0 0 0 -32.759 23.613 6 6 0 0 0 11.384 3.8c3.787-11.361 13.526-15.408 21.378-15.408s17.59 4.047 21.377 15.408a6 6 0 0 0 11.384-3.8 34.06 34.06 0 0 0 -32.764-23.613z" fill="url(#linear-gradient-15)"/></svg>